<mxfile host="app.diagrams.net" modified="2021-06-29T06:10:17.842Z" agent="5.0 (Macintosh; Intel Mac OS X 10_14_6) AppleWebKit/537.36 (KHTML, like Gecko) Chrome/91.0.4472.77 Safari/537.36" etag="1jyM4Vi0V-bGlX4TO4Dk" version="14.8.1" type="github">
  <diagram id="vZq6qZyF6otK3MFfsPUS" name="第 1 页">
    <mxGraphModel dx="1426" dy="803" grid="1" gridSize="10" guides="1" tooltips="1" connect="1" arrows="1" fold="1" page="1" pageScale="1" pageWidth="2339" pageHeight="3300" math="0" shadow="0">
      <root>
        <mxCell id="0" />
        <mxCell id="1" parent="0" />
        <mxCell id="hdDguhC78YPENdvZNt3F-1" value="医疗(子龙)" style="rounded=1;whiteSpace=wrap;html=1;fillColor=#f8cecc;strokeColor=#b85450;gradientColor=#FFE6CC;" vertex="1" parent="1">
          <mxGeometry x="480" y="1120" width="120" height="60" as="geometry" />
        </mxCell>
        <mxCell id="hdDguhC78YPENdvZNt3F-2" value="供应链A8" style="rounded=1;whiteSpace=wrap;html=1;fillColor=#f8cecc;strokeColor=#b85450;gradientColor=#FFE6CC;" vertex="1" parent="1">
          <mxGeometry x="205" y="390" width="120" height="60" as="geometry" />
        </mxCell>
        <mxCell id="hdDguhC78YPENdvZNt3F-3" value="教育集团" style="rounded=1;whiteSpace=wrap;html=1;fillColor=#f8cecc;strokeColor=#b85450;gradientColor=#FFE6CC;" vertex="1" parent="1">
          <mxGeometry x="1000" y="710" width="120" height="60" as="geometry" />
        </mxCell>
        <mxCell id="hdDguhC78YPENdvZNt3F-4" value="阿闻商城" style="rounded=1;whiteSpace=wrap;html=1;fillColor=#f8cecc;strokeColor=#b85450;gradientColor=#FFE6CC;" vertex="1" parent="1">
          <mxGeometry x="290" y="850" width="120" height="60" as="geometry" />
        </mxCell>
        <mxCell id="hdDguhC78YPENdvZNt3F-5" value="供应链R1" style="rounded=1;whiteSpace=wrap;html=1;fillColor=#f8cecc;strokeColor=#b85450;gradientColor=#FFE6CC;" vertex="1" parent="1">
          <mxGeometry x="380" y="390" width="120" height="60" as="geometry" />
        </mxCell>
        <mxCell id="hdDguhC78YPENdvZNt3F-6" value="本地生活" style="rounded=1;whiteSpace=wrap;html=1;fillColor=#f8cecc;strokeColor=#b85450;gradientColor=#FFE6CC;" vertex="1" parent="1">
          <mxGeometry x="110" y="850" width="120" height="60" as="geometry" />
        </mxCell>
        <mxCell id="hdDguhC78YPENdvZNt3F-7" value="宠主" style="shape=umlActor;verticalLabelPosition=bottom;verticalAlign=top;html=1;outlineConnect=0;" vertex="1" parent="1">
          <mxGeometry x="230" y="1130" width="30" height="60" as="geometry" />
        </mxCell>
        <mxCell id="hdDguhC78YPENdvZNt3F-10" value="" style="curved=1;endArrow=classic;html=1;exitX=0.5;exitY=0;exitDx=0;exitDy=0;exitPerimeter=0;entryX=0.5;entryY=1;entryDx=0;entryDy=0;" edge="1" parent="1" source="hdDguhC78YPENdvZNt3F-7" target="hdDguhC78YPENdvZNt3F-4">
          <mxGeometry width="50" height="50" relative="1" as="geometry">
            <mxPoint x="200" y="1150" as="sourcePoint" />
            <mxPoint x="250" y="1100" as="targetPoint" />
            <Array as="points">
              <mxPoint x="330" y="1030" />
            </Array>
          </mxGeometry>
        </mxCell>
        <mxCell id="hdDguhC78YPENdvZNt3F-11" value="" style="curved=1;endArrow=classic;html=1;entryX=0.5;entryY=1;entryDx=0;entryDy=0;exitX=0.5;exitY=0;exitDx=0;exitDy=0;exitPerimeter=0;" edge="1" parent="1" source="hdDguhC78YPENdvZNt3F-7" target="hdDguhC78YPENdvZNt3F-6">
          <mxGeometry width="50" height="50" relative="1" as="geometry">
            <mxPoint x="120" y="1100" as="sourcePoint" />
            <mxPoint x="200" y="970" as="targetPoint" />
            <Array as="points">
              <mxPoint x="170" y="1020" />
            </Array>
          </mxGeometry>
        </mxCell>
        <mxCell id="hdDguhC78YPENdvZNt3F-12" value="" style="curved=1;endArrow=classic;html=1;exitX=1;exitY=0.3333333333333333;exitDx=0;exitDy=0;exitPerimeter=0;entryX=0;entryY=0.5;entryDx=0;entryDy=0;" edge="1" parent="1" source="hdDguhC78YPENdvZNt3F-7" target="hdDguhC78YPENdvZNt3F-1">
          <mxGeometry width="50" height="50" relative="1" as="geometry">
            <mxPoint x="230" y="1190" as="sourcePoint" />
            <mxPoint x="280" y="1140" as="targetPoint" />
            <Array as="points">
              <mxPoint x="370" y="1150" />
            </Array>
          </mxGeometry>
        </mxCell>
        <mxCell id="hdDguhC78YPENdvZNt3F-14" value="前置仓" style="shape=cube;whiteSpace=wrap;html=1;boundedLbl=1;backgroundOutline=1;darkOpacity=0.05;darkOpacity2=0.1;gradientColor=#FFE6CC;" vertex="1" parent="1">
          <mxGeometry x="150" y="620" width="70" height="50" as="geometry" />
        </mxCell>
        <mxCell id="hdDguhC78YPENdvZNt3F-15" value="前置仓" style="shape=cube;whiteSpace=wrap;html=1;boundedLbl=1;backgroundOutline=1;darkOpacity=0.05;darkOpacity2=0.1;gradientColor=#FFE6CC;" vertex="1" parent="1">
          <mxGeometry x="230" y="620" width="70" height="50" as="geometry" />
        </mxCell>
        <mxCell id="hdDguhC78YPENdvZNt3F-16" value="前置仓" style="shape=cube;whiteSpace=wrap;html=1;boundedLbl=1;backgroundOutline=1;darkOpacity=0.05;darkOpacity2=0.1;gradientColor=#FFE6CC;" vertex="1" parent="1">
          <mxGeometry x="310" y="620" width="70" height="50" as="geometry" />
        </mxCell>
        <mxCell id="hdDguhC78YPENdvZNt3F-17" value="" style="curved=1;endArrow=classic;html=1;exitX=0.5;exitY=1;exitDx=0;exitDy=0;entryX=0;entryY=0;entryDx=25;entryDy=0;entryPerimeter=0;" edge="1" parent="1" source="hdDguhC78YPENdvZNt3F-2" target="hdDguhC78YPENdvZNt3F-14">
          <mxGeometry width="50" height="50" relative="1" as="geometry">
            <mxPoint x="510" y="630" as="sourcePoint" />
            <mxPoint x="560" y="580" as="targetPoint" />
            <Array as="points">
              <mxPoint x="220" y="530" />
            </Array>
          </mxGeometry>
        </mxCell>
        <mxCell id="hdDguhC78YPENdvZNt3F-18" value="" style="curved=1;endArrow=classic;html=1;exitX=0.5;exitY=1;exitDx=0;exitDy=0;entryX=0;entryY=0;entryDx=25;entryDy=0;entryPerimeter=0;" edge="1" parent="1" source="hdDguhC78YPENdvZNt3F-2" target="hdDguhC78YPENdvZNt3F-15">
          <mxGeometry width="50" height="50" relative="1" as="geometry">
            <mxPoint x="290" y="460" as="sourcePoint" />
            <mxPoint x="185" y="630" as="targetPoint" />
            <Array as="points">
              <mxPoint x="260" y="530" />
            </Array>
          </mxGeometry>
        </mxCell>
        <mxCell id="hdDguhC78YPENdvZNt3F-19" value="" style="curved=1;endArrow=classic;html=1;exitX=0.5;exitY=1;exitDx=0;exitDy=0;entryX=0;entryY=0;entryDx=25;entryDy=0;entryPerimeter=0;" edge="1" parent="1" source="hdDguhC78YPENdvZNt3F-2" target="hdDguhC78YPENdvZNt3F-16">
          <mxGeometry width="50" height="50" relative="1" as="geometry">
            <mxPoint x="365" y="450" as="sourcePoint" />
            <mxPoint x="340" y="620" as="targetPoint" />
            <Array as="points">
              <mxPoint x="310" y="530" />
            </Array>
          </mxGeometry>
        </mxCell>
        <mxCell id="hdDguhC78YPENdvZNt3F-20" value="线下诊疗" style="text;html=1;strokeColor=none;fillColor=none;align=center;verticalAlign=middle;whiteSpace=wrap;rounded=0;" vertex="1" parent="1">
          <mxGeometry x="325" y="1150" width="60" height="20" as="geometry" />
        </mxCell>
        <mxCell id="hdDguhC78YPENdvZNt3F-21" value="实物商品" style="text;html=1;strokeColor=none;fillColor=none;align=center;verticalAlign=middle;whiteSpace=wrap;rounded=0;" vertex="1" parent="1">
          <mxGeometry x="130" y="1000" width="60" height="20" as="geometry" />
        </mxCell>
      </root>
    </mxGraphModel>
  </diagram>
</mxfile>
